<svg xmlns="http://www.w3.org/2000/svg" width="93.253" height="131.154" viewBox="46.811 31.2 93.253 131.154"><g data-name="Icon"><path d="M80.805 148.904a13.401 13.401 0 1 1 0 .1z" fill="#00dbc5" fill-rule="evenodd" data-name="Ellipse 1171"/><g data-name="Group 2674"><path d="M84.74 157.378a3.14 3.14 0 0 1-3.138-3.138v-5.556H49.95a3.142 3.142 0 0 1-3.138-3.14 3.141 3.141 0 0 1 3.138-3.138h31.653v-5.562a3.141 3.141 0 0 1 3.138-3.138h5.56v-11.117H61.55c-4.929 0-8.937-4.01-8.937-8.938v-57.42L77.645 31.2h47.682c4.928 0 8.937 4.009 8.937 8.937v73.516c0 4.927-4.009 8.935-8.937 8.935h-28.75v11.117h5.558a3.143 3.143 0 0 1 3.14 3.138v5.562h31.65a3.142 3.142 0 0 1 3.139 3.138 3.142 3.142 0 0 1-3.139 3.14h-31.65v5.556a3.142 3.142 0 0 1-3.14 3.138H84.74Zm14.257-6.276v-11.118H87.88v11.118h11.118Zm-40.108-37.45a2.663 2.663 0 0 0 2.66 2.66h63.78a2.663 2.663 0 0 0 2.659-2.66V40.139a2.663 2.663 0 0 0-2.66-2.66H82.083v20.05a3.144 3.144 0 0 1-3.139 3.14H58.89v52.983ZM75.805 54.39V41.916L63.328 54.39h12.477Zm15.262 50.247a3.143 3.143 0 0 1-3.139-3.138V72.508c0-1.73 1.41-3.138 3.14-3.138a3.143 3.143 0 0 1 3.138 3.138V101.5a3.142 3.142 0 0 1-3.139 3.138Zm12.69-.464a3.142 3.142 0 0 1-3.139-3.138V77.843a3.142 3.142 0 0 1 3.14-3.14c1.75.026 3.137 1.48 3.137 3.244v22.985c0 1.763-1.387 3.218-3.092 3.242h-.046Zm12.873-.015a3.144 3.144 0 0 1-3.139-3.138V54.635a3.143 3.143 0 0 1 3.14-3.14 3.144 3.144 0 0 1 3.138 3.14v46.386a3.142 3.142 0 0 1-3.139 3.138Z" fill="#fff" fill-rule="evenodd" data-name="Path 5769"/></g></g></svg>