<svg xmlns="http://www.w3.org/2000/svg" width="182.225" height="57.289" viewBox="28.814 68.158 182.225 57.289"><g data-name="Icon"><path d="M33.806 104.702 206.21 91.41a3.967 3.967 0 0 1 4.26 3.65 3.967 3.967 0 0 1-3.65 4.26L34.416 112.613a3.967 3.967 0 0 1-4.26-3.65 3.967 3.967 0 0 1 3.65-4.26z" fill="#ff9100" fill-rule="evenodd" data-name="Rectangle 2306"/><path d="M60.948 125.447c-7.239 0-12.456-1.153-15.95-3.528-3.142-2.134-4.988-5.389-5.49-9.676l-.326-2.782 19.699-1.52.804.59c.062.046.117.091.168.133.21.106 1.249.541 4.138.541h3.806c2.414 0 3.247-.339 3.429-.43-.001-.01.012-.042.027-.093l.548-1.736 20.334-1.57v3.527c0 4.995-1.785 9.07-5.307 12.112-3.408 2.941-7.954 4.432-13.516 4.432H60.948Zm-15.412-11.076c.538 1.31 1.355 2.323 2.488 3.093 2.538 1.725 6.885 2.598 12.924 2.598h12.364c4.231 0 7.594-1.05 9.997-3.124 1.774-1.532 2.84-3.409 3.249-5.729l-11.067.853c-.401.53-.891.97-1.46 1.311-1.38.83-3.363 1.217-6.234 1.217H63.99c-2.94 0-5.033-.36-6.574-1.134l-11.881.915Zm138.38 10.464c-1.024 0-2-.493-2.606-1.319l-10.953-14.885v12.967a3.241 3.241 0 0 1-3.236 3.237H153.03a3.242 3.242 0 0 1-3.238-3.237v-20.666l37.112-2.86 16.918 21.526c.772.982.913 2.291.366 3.415a3.214 3.214 0 0 1-2.911 1.822h-17.36Zm12.94-5.385-12.408-15.789-10.467.808 11.022 14.981h11.852Zm-31.885 0v-14.286l-9.793.755v13.531h9.793Zm-69.046 5.385a3.241 3.241 0 0 1-3.237-3.237v-16.264l20.565-1.584v4.4h8.606c4.037 0 4.889-.825 4.923-.86-.001 0 .413-.526.664-2.483l.279-2.173 20.9-1.612-.128 3.032c-.303 7.137-2.197 12.375-5.63 15.568-3.773 3.507-9.887 5.213-18.689 5.213H95.925Zm28.253-5.385c7.276 0 12.329-1.27 15.02-3.773 1.906-1.77 3.138-4.735 3.665-8.809l-10.486.808c-.387 1.472-.96 2.58-1.75 3.385-1.653 1.688-4.44 2.474-8.768 2.474h-13.993v-3.969l-9.793.756v9.128h26.105Zm-92.115-16.902a3.25 3.25 0 0 1-3.224-2.988l-.015-.186a3.218 3.218 0 0 1 .77-2.355 3.219 3.219 0 0 1 2.21-1.12l9.291-.717c-.931-2.127-1.405-4.665-1.405-7.55V84.5c0-2.734.504-5.232 1.495-7.423 1.025-2.266 2.543-4.15 4.507-5.6 1.667-1.244 3.692-2.128 6.016-2.629 2.164-.464 5.21-.69 9.316-.69h9.092c6.182 0 11.057 1.188 14.49 3.532 3.759 2.565 5.665 6.29 5.665 11.074v2.927a3.241 3.241 0 0 1-3.238 3.237H74.562l.73.073c3.922.405 7.23 1.342 9.834 2.786l7.561-.583V72.01a3.241 3.241 0 0 1 3.238-3.238h28.253c8.802 0 14.916 1.705 18.687 5.214 2.989 2.778 4.817 7.128 5.434 12.932l1.493-.115V72.01a3.242 3.242 0 0 1 3.238-3.238h14.09a3.241 3.241 0 0 1 3.237 3.238v11.74L181.08 68.77h18.355c1.239 0 2.35.69 2.9 1.8a3.219 3.219 0 0 1-.324 3.4l-7.122 9.354 12.65-.976a3.252 3.252 0 0 1 3.477 2.979l.015.186a3.216 3.216 0 0 1-.77 2.355 3.215 3.215 0 0 1-2.21 1.122L32.316 102.538c-.085.007-.169.01-.252.01Zm28.961-29.003c-3.671 0-6.425.191-8.183.57-1.563.335-2.89.903-3.94 1.686-1.24.915-2.159 2.06-2.81 3.496-.673 1.49-1.013 3.24-1.013 5.203v3.131c0 3.104.663 5.487 1.975 7.086l17.664-1.36-1.184-.12c-2.434-.244-4.277-.728-5.634-1.483-2.536-1.409-2.915-3.487-2.915-4.6v-2.11c0-2.219.964-3.988 2.715-4.98 1.34-.762 3.34-1.117 6.292-1.117h3.501c2.733 0 4.612.45 5.917 1.412 1.024.756 1.712 1.827 2.05 3.183h9.426v-.778c0-2.937-1.084-5.104-3.313-6.625-2.524-1.72-6.377-2.594-11.456-2.594h-9.092Zm37.05 17.24 9.792-.756v-9.958h13.993c4.305 0 7.088.8 8.757 2.516 1.11 1.142 1.816 2.95 2.158 5.521l10.158-.782c-.483-4.38-1.737-7.54-3.734-9.397-2.691-2.503-7.744-3.772-15.02-3.772H98.073v16.627Zm15.18-1.166 14.142-1.09c-.262-1.75-.638-2.185-.643-2.19-.086-.088-.972-.882-4.894-.882h-8.606v4.162ZM60.37 86.956c.272.188 1.19.671 3.699.922l8.315.832a3.243 3.243 0 0 1-2.07-3.019c0-.642-.101-.928-.145-1.02-.185-.085-.89-.337-2.678-.337h-3.5c-2.873 0-3.606.397-3.636.414l.009-.002c.025 0 .006.102.006.298v1.912Zm94.807-.574 9.793-.755v-11.47h-9.793v12.225Zm21.082-1.626 11.443-.882 7.396-9.717h-11.253l-7.586 10.6Z" fill="#fff" fill-rule="evenodd" data-name="Path 5766"/></g></svg>