<svg xmlns="http://www.w3.org/2000/svg" width="122.3" height="135.818" viewBox="32.288 32.073 122.3 135.818"><g data-name="Icon"><path d="M37.34 62.598a12.599 12.599 0 1 1 0 .1z" fill="#00dbc5" fill-rule="evenodd" data-name="Ellipse 1166"/><path d="M127.786 55.103a13.401 13.401 0 1 1 0 .1z" fill="#00dbc5" fill-rule="evenodd" data-name="Ellipse 1167"/><path d="M80.177 154.615a13.226 13.226 0 1 1 0 .1z" fill="#00dbc5" fill-rule="evenodd" data-name="Ellipse 1168"/><path d="M69.11 103.37a24.42 24.42 0 1 1 0 .1z" fill="#ff9100" fill-rule="evenodd" data-name="Ellipse 1169"/><path d="M87.572 160.173c-7.733 0-13.79-6.057-13.79-13.789 0-6.258 4.25-11.722 10.357-13.352v-7.835a29.313 29.313 0 0 1-18.162-9.253c-4.987-5.402-7.733-12.41-7.733-19.733 0-6.566 2.226-12.81 6.44-18.07L53.19 66.65a14.764 14.764 0 0 1-7.113 1.857c-7.732 0-13.79-6.057-13.79-13.79 0-7.732 6.058-13.79 13.79-13.79 7.732 0 13.79 6.058 13.79 13.79a14.8 14.8 0 0 1-1.857 7.117l11.492 11.492c5.198-4.154 11.607-6.439 18.07-6.439 6.462 0 12.87 2.285 18.07 6.44l15.915-15.915a16.593 16.593 0 0 1-2.607-8.958c0-9.032 7.35-16.38 16.381-16.38 8.56 0 15.665 6.601 16.327 15.091l.024-.01.027.357.001.942c0 9.032-7.349 16.38-16.38 16.38-3.195 0-6.288-.9-8.958-2.606L110.46 78.141c4.154 5.198 6.44 11.607 6.44 18.07 0 7.324-2.747 14.332-7.734 19.734a29.319 29.319 0 0 1-18.16 9.252v7.835c6.106 1.63 10.356 7.094 10.356 13.352 0 7.732-6.058 13.79-13.79 13.79Zm.002-20.715c-3.949 0-6.926 2.977-6.926 6.926 0 3.95 2.977 6.927 6.926 6.927 3.948 0 6.926-2.978 6.926-6.927 0-3.949-2.978-6.926-6.926-6.926Zm0-65.708c-12.387 0-22.463 10.076-22.463 22.462 0 12.385 10.076 22.461 22.462 22.461s22.462-10.076 22.462-22.46c0-12.387-10.076-22.463-22.462-22.463ZM46.075 47.79c-3.949 0-6.926 2.977-6.926 6.926 0 3.95 2.977 6.926 6.926 6.926 3.95 0 6.926-2.977 6.926-6.926 0-3.949-2.977-6.926-6.926-6.926Zm89.256-8.85c-5.246 0-9.514 4.267-9.514 9.514 0 5.246 4.268 9.514 9.514 9.514 5.246 0 9.514-4.268 9.514-9.514 0-5.247-4.268-9.515-9.514-9.515Zm-47.76 73.651c-2.02 0-3.433-1.41-3.433-3.433v-9.514h-9.514c-2.022 0-3.433-1.41-3.433-3.433 0-2.02 1.411-3.432 3.433-3.432h9.514v-9.515c0-2.02 1.412-3.432 3.433-3.432s3.433 1.411 3.433 3.432v9.515h9.514c2.021 0 3.433 1.411 3.433 3.432 0 2.022-1.412 3.433-3.433 3.433h-9.514v9.514c0 2.022-1.412 3.433-3.433 3.433Z" fill="#fff" fill-rule="evenodd" data-name="Path 5767"/></g></svg>