<svg xmlns="http://www.w3.org/2000/svg" width="114.847" height="114.847" viewBox="36.015 39.379 114.847 114.847"><g data-name="Icon"><path d="M70.006 102.263a31.308 31.308 0 1 1 0 .1z" fill="#ff9100" fill-rule="evenodd" data-name="Ellipse 1170"/><path d="M93.635 117.47a1.883 1.883 0 0 1-1.88-1.882v-1.717c-3.88-.494-7.463-2.007-10.65-4.499a1.877 1.877 0 0 1-.717-1.292c-.054-.512.1-1.01.43-1.405l1.91-2.276a1.879 1.879 0 0 1 2.596-.275c1.832 1.434 3.725 2.435 5.623 2.975a.64.64 0 0 0 .808-.621v-7.327c-3.482-.875-6.099-2.034-7.784-3.445-1.833-1.537-2.762-3.82-2.762-6.787 0-2.956 1.053-5.414 3.13-7.304 1.924-1.75 4.419-2.766 7.416-3.02v-.579c0-1.038.844-1.882 1.881-1.882h.572c1.039 0 1.883.844 1.883 1.882v.637c3 .306 5.898 1.292 8.617 2.931a1.886 1.886 0 0 1 .568 2.701l-1.678 2.375a1.883 1.883 0 0 1-2.518.518 14.926 14.926 0 0 0-4.99-1.952v7.835c3.62.884 6.344 2.088 8.1 3.583 1.879 1.6 2.83 3.931 2.83 6.93 0 2.995-1.078 5.47-3.207 7.355-1.974 1.754-4.572 2.77-7.722 3.021v1.638a1.883 1.883 0 0 1-1.882 1.881h-.574Zm2.456-10.796a.644.644 0 0 0 .83.614c.723-.212 1.339-.525 1.831-.929.758-.624 1.128-1.384 1.128-2.326 0-.956-.285-1.686-.868-2.23-.535-.5-1.517-.994-2.921-1.468v6.34Zm-6.717-20.579c-.687.607-1.021 1.341-1.021 2.244 0 .915.253 1.608.778 2.117.351.344.936.694 1.734 1.041a.627.627 0 0 0 .25.053.644.644 0 0 0 .638-.645l.002-5.852c-.993.173-1.792.523-2.38 1.043h-.001Zm-.65 68.131a3.203 3.203 0 0 1-2.878-1.778l-4.628-9.26a47.616 47.616 0 0 1-11.922-4.95l-9.837 3.28a3.213 3.213 0 0 1-3.292-.778l-6.667-6.666a3.198 3.198 0 0 1-.775-3.292l3.278-9.835a47.697 47.697 0 0 1-4.949-11.923l-9.26-4.63a3.2 3.2 0 0 1-1.78-2.877v-9.429c0-1.226.683-2.328 1.778-2.876l9.261-4.63a47.687 47.687 0 0 1 4.95-11.925l-3.28-9.834a3.2 3.2 0 0 1 .777-3.293l6.667-6.666a3.184 3.184 0 0 1 2.273-.942c.346 0 .688.056 1.018.165l9.836 3.28a47.625 47.625 0 0 1 11.925-4.95l4.627-9.26a3.202 3.202 0 0 1 2.879-1.778h9.428c1.225 0 2.327.682 2.877 1.778l4.63 9.261a47.591 47.591 0 0 1 11.922 4.95l9.835-3.28a3.19 3.19 0 0 1 1.018-.166c.86 0 1.668.335 2.274.943l6.666 6.666a3.202 3.202 0 0 1 .778 3.291l-3.28 9.836a47.649 47.649 0 0 1 4.95 11.923l9.26 4.63a3.2 3.2 0 0 1 1.779 2.877v9.43a3.199 3.199 0 0 1-1.779 2.875l-9.26 4.63a47.676 47.676 0 0 1-4.95 11.922l3.28 9.836a3.199 3.199 0 0 1-.777 3.292l-6.666 6.666a3.192 3.192 0 0 1-3.293.777l-9.834-3.279a47.738 47.738 0 0 1-11.922 4.95l-4.631 9.26a3.198 3.198 0 0 1-2.877 1.78h-9.428Zm7.44-6.433 4.406-8.812a3.21 3.21 0 0 1 2.16-1.697 41.213 41.213 0 0 0 12.748-5.292 3.22 3.22 0 0 1 2.727-.327l9.363 3.12 3.853-3.855-3.121-9.362a3.207 3.207 0 0 1 .327-2.727 41.24 41.24 0 0 0 5.294-12.749 3.2 3.2 0 0 1 1.695-2.16l8.812-4.405v-5.45l-8.81-4.406a3.2 3.2 0 0 1-1.697-2.16 41.21 41.21 0 0 0-5.293-12.749 3.207 3.207 0 0 1-.326-2.728l3.12-9.36-3.853-3.855-9.363 3.121a3.264 3.264 0 0 1-1.02.164 3.195 3.195 0 0 1-1.71-.494 41.178 41.178 0 0 0-12.747-5.29 3.205 3.205 0 0 1-2.16-1.698l-4.404-8.81h-5.451l-4.404 8.81a3.213 3.213 0 0 1-2.16 1.698 41.166 41.166 0 0 0-12.752 5.292 3.206 3.206 0 0 1-2.724.328l-9.362-3.12-3.856 3.854 3.12 9.36a3.21 3.21 0 0 1-.326 2.726 41.221 41.221 0 0 0-5.293 12.752 3.203 3.203 0 0 1-1.697 2.16l-8.812 4.404v5.451l8.812 4.405a3.211 3.211 0 0 1 1.697 2.16 41.167 41.167 0 0 0 5.29 12.75c.514.817.635 1.812.328 2.728l-3.12 9.36 3.856 3.855 9.36-3.12a3.225 3.225 0 0 1 2.727.326 41.223 41.223 0 0 0 12.75 5.293 3.21 3.21 0 0 1 2.16 1.697l4.405 8.812h5.45Zm-2.726-17.135c-9.077 0-17.607-3.558-24.02-10.019-6.41-6.458-9.902-15.016-9.835-24.096.14-18.38 15.207-33.452 33.586-33.595h.269c18.668 0 33.855 15.187 33.855 33.855 0 18.667-15.187 33.855-33.855 33.855Zm0-61.277c-8.335 0-16.126 3.74-21.373 10.26-5.236 6.508-7.194 15.012-5.372 23.33 2.004 9.15 11.426 18.572 20.575 20.576 2.047.45 4.124.678 6.17.678 7.313 0 14.197-2.856 19.382-8.04 5.185-5.186 8.04-12.07 8.04-19.382 0-15.12-12.301-27.422-27.422-27.422Zm.198 48.328a2.124 2.124 0 0 1-2.121-2.12v-1.508c-3.842-.526-7.393-2.047-10.557-4.52a2.11 2.11 0 0 1-.807-1.457 2.104 2.104 0 0 1 .483-1.583l1.91-2.277a2.118 2.118 0 0 1 2.927-.309c1.81 1.416 3.673 2.402 5.54 2.934a.401.401 0 0 0 .503-.391v-7.14c-3.423-.879-6.014-2.039-7.695-3.449-1.89-1.585-2.849-3.93-2.849-6.97 0-3.027 1.08-5.544 3.207-7.48 1.917-1.744 4.385-2.774 7.338-3.064v-.359c0-1.17.952-2.12 2.121-2.12h.572c1.17 0 2.122.95 2.122 2.12v.422c2.959.334 5.818 1.323 8.502 2.941.503.303.863.808.983 1.385a2.13 2.13 0 0 1-.342 1.66l-1.68 2.374a2.12 2.12 0 0 1-2.839.584 14.71 14.71 0 0 0-4.624-1.862v7.354c3.566.888 6.262 2.095 8.015 3.587 1.935 1.648 2.915 4.042 2.915 7.112 0 3.067-1.106 5.602-3.289 7.535-1.966 1.747-4.536 2.777-7.641 3.061v1.42a2.123 2.123 0 0 1-2.12 2.12h-.574Zm2.694-11.035c0 .274.242.402.405.402a.38.38 0 0 0 .119-.019c.692-.202 1.279-.499 1.747-.883.699-.576 1.04-1.276 1.04-2.14 0-.887-.26-1.56-.792-2.057-.47-.438-1.317-.877-2.52-1.305v6.002Zm-4.815-21.33c-.817.178-1.484.491-1.983.931-.634.56-.94 1.234-.94 2.064 0 .847.23 1.483.705 1.945.331.324.892.658 1.663.993a.389.389 0 0 0 .155.033c.16 0 .4-.129.4-.405v-5.56Z" fill="#fff" fill-rule="evenodd" data-name="Path 5768"/></g></svg>