<svg xmlns="http://www.w3.org/2000/svg" width="129.247" height="129.459" viewBox="28.814 32.074 129.247 129.459"><g data-name="Icon"><path d="M44.7 86.047a40.152 40.152 0 1 1 0 .1z" fill="#ff9100" fill-rule="evenodd" data-name="Ellipse 1165"/><path d="M93.58 161.533c-.818 0-1.601-.333-2.208-.94l-10.216-10.216c-.606-.605-.94-1.39-.94-2.208 0-.817.334-1.602.94-2.208.606-.606 1.39-.94 2.209-.94.816 0 1.601.334 2.208.94l4.86 4.86v-10.75c-11.614-.141-37.229-10.327-40.06-40.12h-10.81l4.86 4.86c.952.955 1.233 2.224.746 3.395-.487 1.176-1.609 1.937-2.857 1.937-.78 0-1.56-.301-2.257-.871l-10.264-10.26c-1.309-1.523-1.296-3.12 0-4.415L40.008 84.38c.753-.837 1.588-1.018 2.153-1.018 1.216 0 2.421.86 2.932 2.093.49 1.183.24 2.43-.669 3.34l-4.86 4.86h10.794c1.532-21.361 18.606-38.541 40.076-40.318V42.785l-4.86 4.86c-.606.607-1.39.94-2.208.94-.818 0-1.602-.333-2.208-.94-.605-.605-.94-1.39-.94-2.207 0-.818.335-1.602.94-2.208l10.218-10.216c.604-.606 1.387-.94 2.206-.94.817 0 1.602.334 2.208.94l10.216 10.216c.606.606.94 1.39.94 2.208 0 .817-.334 1.602-.94 2.208-.403.403-1.222.873-2.203.873-.776 0-1.505-.28-2.169-.833l-4.904-4.902v10.8c22.162 1.74 38.524 18.2 40.076 40.32h10.546l-4.86-4.86c-.606-.605-.94-1.39-.94-2.207 0-.818.332-1.602.94-2.208.604-.606 1.388-.94 2.207-.94.817 0 1.601.334 2.208.94l10.215 10.216c.606.606.94 1.389.94 2.208 0 .817-.334 1.602-.94 2.208l-10.215 10.216c-.708.593-1.439.873-2.214.873-.98 0-1.8-.471-2.202-.874-.605-.605-.94-1.39-.94-2.207 0-.818.333-1.602.94-2.208l4.861-4.861h-10.547c-1.55 21.465-18.625 38.54-40.075 40.076v10.546l4.86-4.861c.605-.606 1.39-.94 2.207-.94.819 0 1.602.334 2.208.94.606.605.94 1.39.94 2.208 0 .817-.334 1.602-.94 2.208l-10.216 10.216c-.606.606-1.39.94-2.208.94Zm-16.315-31.326c4.955 2.5 10.558 3.815 16.316 3.815 1.07 0 2.267-.132 3.36-.29l-8.204-8.203c-3.79 2.145-7.788 3.77-11.472 4.678Zm26.962 2.229c5.07-1.656 9.43-3.961 13.294-7.03l-12.23-12.228c-3.195 3.136-6.78 6.062-11.189 9.133l10.125 10.125ZM69.56 106.353c-3.144 5.795-5.41 13.417-1.929 16.898.944.783 2.46 1.218 4.341 1.218 3.27 0 7.522-1.294 12.047-3.657l-14.459-14.46Zm52.393 14.407c3.614-4.236 5.922-8.673 7.04-13.531l-10.139-10.14c-2.403 3.61-5.48 7.443-9.16 11.41l12.26 12.26Zm-32.53-3.128c4.251-2.952 8.004-5.948 11.438-9.134L81.872 89.51c-3.303 3.366-6.297 7.119-9.13 11.44l16.68 16.682ZM56.55 93.59c-.023.327-.049.654-.075.977-.058.73-.113 1.419-.114 1.986 0 5.737 1.274 11.258 3.786 16.438.826-3.818 2.32-7.625 4.457-11.348L56.55 93.59Zm48.74 10.507c3.304-3.368 6.298-7.121 9.13-11.442l-16.69-16.69c-3.605 2.378-7.446 5.45-11.428 9.144l18.989 18.988Zm25.322-4.082c.02-.3.044-.6.066-.896.06-.784.124-1.594.124-2.317 0-5.743-1.277-11.27-3.796-16.455-.813 3.578-2.36 7.319-4.696 11.365l8.302 8.303Zm-62.304-3.5c2.404-3.611 5.481-7.443 9.162-11.41l-12.26-12.26c-3.364 3.959-5.609 8.288-7.029 13.544l10.127 10.127Zm49.282-9.523c2.497-4.806 5.454-12.94 2.41-16.42-1.004-1.001-2.55-1.525-4.565-1.525-3.053 0-7.173 1.189-12.258 3.533l14.413 14.412Zm-35.954-6.55c3.966-3.681 7.8-6.76 11.41-9.162L82.923 61.158c-4.822 1.372-9.182 3.756-13.298 7.273l12.011 12.012Zm17.026-12.377c1.876-1.138 3.775-2.07 5.652-2.774 2.062-.94 4.015-1.464 5.801-1.876-5.208-2.543-10.76-3.831-16.534-3.831-.89 0-2.003.097-3.13.27l8.211 8.21Z" fill="#fff" fill-rule="evenodd" data-name="Path 5765"/></g></svg>